<svg xmlns="http://www.w3.org/2000/svg" xmlns:xlink="http://www.w3.org/1999/xlink" width="1080" zoomAndPan="magnify" viewBox="0 0 810 809.999993" height="1080" preserveAspectRatio="xMidYMid meet" version="1.0"><defs><clipPath id="4055931bf2"><path d="M 105 12 L 700 12 L 700 194 L 105 194 Z M 105 12 " clip-rule="nonzero"/></clipPath><clipPath id="a296efdc13"><path d="M 119.523438 0 L 699.941406 51.050781 L 686.253906 206.640625 L 105.835938 155.589844 Z M 119.523438 0 " clip-rule="nonzero"/></clipPath><clipPath id="8d674e46e9"><path d="M 263.515625 12.664062 L 699.570312 51.019531 L 541.890625 193.941406 L 105.835938 155.589844 Z M 263.515625 12.664062 " clip-rule="nonzero"/></clipPath><clipPath id="89d487a779"><path d="M 543.480469 51.15625 L 704.164062 51.15625 L 704.164062 809.996094 L 543.480469 809.996094 Z M 543.480469 51.15625 " clip-rule="nonzero"/></clipPath><clipPath id="9196c201c3"><path d="M 543.480469 196.394531 L 543.480469 809.996094 L 704.164062 664.847656 L 704.164062 51.246094 Z M 543.480469 196.394531 " clip-rule="nonzero"/></clipPath><clipPath id="d425d0de5d"><path d="M 105.832031 158.164062 L 540.949219 158.164062 L 540.949219 810 L 105.832031 810 Z M 105.832031 158.164062 " clip-rule="nonzero"/></clipPath><clipPath id="cf89ad5c73"><path d="M 540.949219 195.664062 L 540.949219 810.003906 L 105.832031 772.503906 L 105.832031 158.164062 Z M 540.949219 195.664062 " clip-rule="nonzero"/></clipPath><clipPath id="efe1889850"><path d="M 161.265625 235.148438 L 487.257812 235.148438 L 487.257812 336.183594 L 161.265625 336.183594 Z M 161.265625 235.148438 " clip-rule="nonzero"/></clipPath><clipPath id="37c41421de"><path d="M 487.257812 262.671875 L 487.257812 336.183594 L 161.363281 308.664062 L 161.363281 235.148438 Z M 487.257812 262.671875 " clip-rule="nonzero"/></clipPath><clipPath id="3d2c33cf10"><path d="M 179.347656 521.832031 L 467.363281 521.832031 L 467.363281 580.488281 L 179.347656 580.488281 Z M 179.347656 521.832031 " clip-rule="nonzero"/></clipPath><clipPath id="53a42e1ae2"><path d="M 467.363281 546.144531 L 467.363281 580.488281 L 179.421875 556.171875 L 179.421875 521.832031 Z M 467.363281 546.144531 " clip-rule="nonzero"/></clipPath><clipPath id="e7aa11c7f4"><path d="M 160.25 342.953125 L 486.335938 342.953125 L 486.335938 444.136719 L 160.25 444.136719 Z M 160.25 342.953125 " clip-rule="nonzero"/></clipPath><clipPath id="51eb120c7a"><path d="M 486.335938 370.03125 L 486.335938 444.136719 L 160.441406 417.058594 L 160.441406 342.953125 Z M 486.335938 370.03125 " clip-rule="nonzero"/></clipPath><clipPath id="c126c395ad"><path d="M 179.238281 580.488281 L 467.363281 580.488281 L 467.363281 632.652344 L 179.238281 632.652344 Z M 179.238281 580.488281 " clip-rule="nonzero"/></clipPath><clipPath id="e2b9b5064b"><path d="M 467.363281 604.804688 L 467.363281 632.652344 L 179.421875 608.335938 L 179.421875 580.488281 Z M 467.363281 604.804688 " clip-rule="nonzero"/></clipPath><clipPath id="f331b1de3f"><path d="M 179.238281 628.351562 L 467.363281 628.351562 L 467.363281 680.515625 L 179.238281 680.515625 Z M 179.238281 628.351562 " clip-rule="nonzero"/></clipPath><clipPath id="3bdca38d96"><path d="M 467.363281 652.667969 L 467.363281 680.515625 L 179.421875 656.203125 L 179.421875 628.351562 Z M 467.363281 652.667969 " clip-rule="nonzero"/></clipPath><clipPath id="a92fc1fcc2"><path d="M 179.238281 680.515625 L 467.363281 680.515625 L 467.363281 732.679688 L 179.238281 732.679688 Z M 179.238281 680.515625 " clip-rule="nonzero"/></clipPath><clipPath id="e287823274"><path d="M 467.363281 704.832031 L 467.363281 732.679688 L 179.421875 708.367188 L 179.421875 680.515625 Z M 467.363281 704.832031 " clip-rule="nonzero"/></clipPath></defs><g clip-path="url(#4055931bf2)"><g clip-path="url(#a296efdc13)"><g clip-path="url(#8d674e46e9)"><path fill="#000000" d="M 119.523438 0 L 699.332031 51 L 685.648438 206.585938 L 105.835938 155.589844 Z M 119.523438 0 " fill-opacity="1" fill-rule="nonzero"/></g></g></g><g clip-path="url(#89d487a779)"><g clip-path="url(#9196c201c3)"><path fill="#000000" d="M 543.480469 809.996094 L 543.480469 51.15625 L 704.164062 51.15625 L 704.164062 809.996094 Z M 543.480469 809.996094 " fill-opacity="1" fill-rule="nonzero"/></g></g><g clip-path="url(#d425d0de5d)"><g clip-path="url(#cf89ad5c73)"><path fill="#000000" d="M 540.949219 158.164062 L 540.949219 810.839844 L 105.832031 810.839844 L 105.832031 158.164062 Z M 540.949219 158.164062 " fill-opacity="1" fill-rule="nonzero"/></g></g><g clip-path="url(#efe1889850)"><g clip-path="url(#37c41421de)"><path fill="#ffffff" d="M 487.257812 235.148438 L 487.257812 336.183594 L 161.265625 336.183594 L 161.265625 235.148438 Z M 487.257812 235.148438 " fill-opacity="1" fill-rule="nonzero"/></g></g><g clip-path="url(#3d2c33cf10)"><g clip-path="url(#53a42e1ae2)"><path fill="#ffffff" d="M 467.363281 521.832031 L 467.363281 580.488281 L 179.347656 580.488281 L 179.347656 521.832031 Z M 467.363281 521.832031 " fill-opacity="1" fill-rule="nonzero"/></g></g><g clip-path="url(#e7aa11c7f4)"><g clip-path="url(#51eb120c7a)"><path fill="#ffffff" d="M 486.335938 342.953125 L 486.335938 444.136719 L 160.25 444.136719 L 160.25 342.953125 Z M 486.335938 342.953125 " fill-opacity="1" fill-rule="nonzero"/></g></g><g clip-path="url(#c126c395ad)"><g clip-path="url(#e2b9b5064b)"><path fill="#ffffff" d="M 467.363281 580.488281 L 467.363281 632.652344 L 179.445312 632.652344 L 179.445312 580.488281 Z M 467.363281 580.488281 " fill-opacity="1" fill-rule="nonzero"/></g></g><g clip-path="url(#f331b1de3f)"><g clip-path="url(#3bdca38d96)"><path fill="#ffffff" d="M 467.363281 628.351562 L 467.363281 680.515625 L 179.445312 680.515625 L 179.445312 628.351562 Z M 467.363281 628.351562 " fill-opacity="1" fill-rule="nonzero"/></g></g><g clip-path="url(#a92fc1fcc2)"><g clip-path="url(#e287823274)"><path fill="#ffffff" d="M 467.363281 680.515625 L 467.363281 732.679688 L 179.445312 732.679688 L 179.445312 680.515625 Z M 467.363281 680.515625 " fill-opacity="1" fill-rule="nonzero"/></g></g></svg>